<svg version="1.1" viewBox="0.0 0.0 953.1548556430446 550.4120734908137" fill="none" stroke="none" stroke-linecap="square" stroke-miterlimit="10" xmlns:xlink="http://www.w3.org/1999/xlink" xmlns="http://www.w3.org/2000/svg"><clipPath id="p.0"><path d="m0 0l953.15485 0l0 550.41205l-953.15485 0l0 -550.41205z" clip-rule="nonzero"/></clipPath><g clip-path="url(#p.0)"><path fill="#000000" fill-opacity="0.0" d="m0 0l953.15485 0l0 550.41205l-953.15485 0z" fill-rule="evenodd"/><path fill="#ffffff" d="m78.49869 107.125984l793.2914 0l0 359.2441l-793.2914 0z" fill-rule="evenodd"/><path stroke="#ffffff" stroke-width="1.0" stroke-linejoin="round" stroke-linecap="butt" d="m78.49869 107.125984l793.2914 0l0 359.2441l-793.2914 0z" fill-rule="evenodd"/><path fill="#fce5cd" d="m128.79134 318.7139l0 0c0 -32.023804 26.235413 -57.984253 58.598434 -57.984253l0 0c15.54126 0 30.446 6.1090393 41.435333 16.983215c10.989334 10.8741455 17.163086 25.62268 17.163086 41.001038l0 0c0 32.023834 -26.235413 57.984253 -58.59842 57.984253l0 0c-32.36302 0 -58.598434 -25.960419 -58.598434 -57.984253z" fill-rule="evenodd"/><path fill="#d9ead3" d="m168.91733 213.3202l0 0c0 -22.682816 18.92389 -41.07086 42.267715 -41.07086l0 0c11.210098 0 21.961044 4.3271027 29.887787 12.029373c7.9267273 7.702286 12.379929 18.148819 12.379929 29.041489l0 0c0 22.682816 -18.923904 41.070877 -42.267715 41.070877l0 0c-23.343826 0 -42.267715 -18.388062 -42.267715 -41.070877z" fill-rule="evenodd"/><path fill="#c9daf8" d="m245.98819 280.3517l0 0c0 -53.210693 45.03241 -96.346466 100.58267 -96.346466l0 0c26.676178 0 52.259796 10.150757 71.12271 28.219223c18.862885 18.068466 29.45996 42.57457 29.45996 68.12724l0 0c0 53.210663 -45.03238 96.346436 -100.58267 96.346436l0 0c-55.550262 0 -100.58267 -43.135773 -100.58267 -96.346436z" fill-rule="evenodd"/><path fill="#ead1dc" d="m394.05228 174.79002l0 0c0 -14.428986 11.88736 -26.125977 26.551178 -26.125977l0 0c7.041809 0 13.795197 2.7525482 18.774536 7.652115c4.979309 4.899582 7.776642 11.544815 7.776642 18.473862l0 0c0 14.428986 -11.88736 26.125992 -26.551178 26.125992l0 0c-14.663818 0 -26.551178 -11.697006 -26.551178 -26.125992z" fill-rule="evenodd"/><path fill="#000000" fill-opacity="0.0" d="m284.36353 189.86351l540.0 0l0 180.9764l-540.0 0z" fill-rule="evenodd"/><path fill="#000000" d="m294.26978 326.86353l0 -22.453125l9.4375 0l19.46875 -58.73439l-14.0 0l0 -22.453125l64.328125 0l24.34375 81.187515l9.4375 0l0 22.453125l-58.390625 0l0 -22.453125l10.75 0l-3.0 -11.40625l-26.828125 0l-3.375 11.40625l10.734375 0l0 22.453125l-42.90625 0zm40.375 -50.125l17.703125 0l-8.265625 -31.64064l-9.4375 31.64064zm78.24811 50.125l0 -19.53125l10.09375 0l0 -30.734375l-10.75 0l0 -17.765625l10.75 -1.046875l0 -4.8125153q0 -13.15625 8.484375 -20.34375q8.5 -7.1875 24.390625 -7.1875q4.484375 0 8.265625 0.453125q3.78125 0.453125 7.484375 1.359375l0 18.625l-1.75 0.78125q-1.4375 -0.453125 -3.109375 -0.875q-1.65625 -0.421875 -4.125 -0.421875q-4.359375 0 -6.375 2.1875q-2.015625 2.171875 -2.015625 6.078125l0 3.4531403l15.75 0l0 19.515625l-15.75 0l0 30.734375l15.75 0l0 19.53125l-57.09375 0zm85.14859 1.171875q-6.703125 0 -11.953125 -2.703125q-5.234375 -2.703125 -8.203125 -7.453125q-2.953125 -4.75 -2.953125 -10.9375q0 -9.640625 7.421875 -15.359375q7.421875 -5.734375 19.796875 -5.734375q4.296875 0 8.203125 0.53125q3.9062195 0.515625 7.9374695 1.75l0 -1.4375q0 -5.921875 -3.625 -8.59375q-3.6093445 -2.671875 -11.5468445 -2.671875q-5.734375 0 -11.59375 1.5q-5.859375 1.5 -10.671875 4.171875l-1.75 -0.78125l0 -19.015625q6.828125 -2.65625 15.515625 -4.015625q8.703125 -1.3750153 17.484344 -1.3750153q19.46875 0 28.453125 6.5156403q8.984375 6.5 8.984375 20.890625l0 24.015625l8.453125 0l0 19.53125l-35.53125 0l-3.203125 -10.21875q-3.046875 5.34375 -8.6874695 8.375q-5.625 3.015625 -12.53125 3.015625zm13.609375 -16.671875q1.7499695 0 3.6718445 -0.609375q1.921875 -0.625 2.96875 -1.65625l0 -10.875q-1.625 -0.71875 -3.296875 -0.96875q-1.65625 -0.265625 -3.0780945 -0.265625q-3.328125 0 -5.578125 1.953125q-2.234375 1.953125 -2.234375 5.203125q0 3.3125 2.078125 5.265625q2.078125 1.953125 5.46875 1.953125zm94.717804 16.671875q-6.640625 0 -12.890625 -1.5625q-6.25 -1.5625 -11.0625 -4.484375l-2.015625 4.875l-14.328125 0l0 -24.484375l16.671875 0q1.5 5.078125 5.203125 8.015625q3.71875 2.921875 8.078125 2.921875q5.71875 0 5.71875 -4.296875q0 -3.125 -2.578125 -4.8125q-2.5625 -1.6875 -6.640625 -2.859375q-4.0625 -1.171875 -8.625 -2.53125q-4.546875 -1.375 -8.625 -3.75q-4.0625 -2.375 -6.640625 -6.515625q-2.5625 -4.140625 -2.5625 -10.84375q0 -6.046875 3.21875 -11.0q3.234375 -4.953125 9.765625 -7.90625q6.546875 -2.9687653 16.4375 -2.9687653q6.390625 0 11.828125 1.3437653q5.4375 1.328125 10.1875 4.265625l1.5625 -4.359375l14.3125 0l0 22.390625l-16.65625 0q-1.703125 -4.953125 -4.859375 -7.265625q-3.15625 -2.3125 -6.796875 -2.3125q-6.375 0 -6.375 3.90625q0 2.734375 2.625 4.328125q2.640625 1.59375 6.765625 2.765625q4.140625 1.171875 8.765625 2.671875q4.625 1.5 8.75 4.046875q4.140625 2.53125 6.765625 6.765625q2.640625 4.234375 2.640625 11.0q0 10.359375 -7.453125 16.515625q-7.453125 6.140625 -21.1875 6.140625zm35.94232 -1.171875l0 -19.53125l10.09375 0l0 -29.875l-10.09375 0l0 -17.78125l41.34375 -3.8437653l0 51.500015l10.078125 0l0 19.53125l-51.421875 0zm25.71875 -75.39064q-8.53125 0 -13.640625 -4.09375q-5.109375 -4.109375 -5.109375 -10.875q0 -6.765625 5.078125 -10.703125q5.078125 -3.953125 13.734375 -3.953125q8.84375 0 13.765625 3.84375q4.921875 3.84375 4.921875 10.8125q0 6.90625 -5.046875 10.9375q-5.046875 4.03125 -13.703125 4.03125zm55.198242 76.562515q-6.703125 0 -11.953125 -2.703125q-5.234375 -2.703125 -8.203125 -7.453125q-2.953125 -4.75 -2.953125 -10.9375q0 -9.640625 7.421875 -15.359375q7.421875 -5.734375 19.796875 -5.734375q4.296875 0 8.203125 0.53125q3.90625 0.515625 7.9375 1.75l0 -1.4375q0 -5.921875 -3.625 -8.59375q-3.609375 -2.671875 -11.546875 -2.671875q-5.734375 0 -11.59375 1.5q-5.859375 1.5 -10.671875 4.171875l-1.75 -0.78125l0 -19.015625q6.828125 -2.65625 15.515625 -4.015625q8.703125 -1.3750153 17.484375 -1.3750153q19.46875 0 28.453125 6.5156403q8.984375 6.5 8.984375 20.890625l0 24.015625l8.453125 0l0 19.53125l-35.53125 0l-3.203125 -10.21875q-3.046875 5.34375 -8.6875 8.375q-5.625 3.015625 -12.53125 3.015625zm13.609375 -16.671875q1.75 0 3.671875 -0.609375q1.921875 -0.625 2.96875 -1.65625l0 -10.875q-1.625 -0.71875 -3.296875 -0.96875q-1.65625 -0.265625 -3.078125 -0.265625q-3.328125 0 -5.578125 1.953125q-2.234375 1.953125 -2.234375 5.203125q0 3.3125 2.078125 5.265625q2.078125 1.953125 5.46875 1.953125z" fill-rule="nonzero"/><path fill="#000000" fill-opacity="0.0" d="m500.6181 325.58005l300.8189 0l0 45.259857l-300.8189 0z" fill-rule="evenodd"/><path fill="#000000" d="m524.20557 355.2788q-1.734375 0 -3.234375 -0.65625q-1.5 -0.671875 -2.640625 -1.84375q-1.140625 -1.1875 -1.78125 -2.734375q-0.640625 -1.546875 -0.640625 -3.328125q0 -1.75 0.625 -3.296875q0.625 -1.546875 1.765625 -2.71875q1.140625 -1.171875 2.640625 -1.84375q1.515625 -0.671875 3.265625 -0.671875q1.53125 0 2.78125 0.453125q1.265625 0.453125 2.4375 1.421875q0.1875 0.15625 0.21875 0.359375q0.03125 0.203125 -0.046875 0.390625q-0.078125 0.171875 -0.25 0.265625q-0.046875 0.15625 -0.21875 0.25q-0.171875 0.078125 -0.40625 0.0625q-0.21875 -0.015625 -0.421875 -0.1875q-0.84375 -0.734375 -1.828125 -1.078125q-0.96875 -0.359375 -2.265625 -0.359375q-1.390625 0 -2.59375 0.5625q-1.203125 0.546875 -2.125 1.515625q-0.921875 0.953125 -1.453125 2.21875q-0.515625 1.25 -0.515625 2.65625q0 1.453125 0.515625 2.71875q0.53125 1.25 1.453125 2.21875q0.921875 0.953125 2.125 1.5q1.203125 0.546875 2.59375 0.546875q1.171875 0 2.203125 -0.390625q1.046875 -0.390625 2.0 -1.109375q0.25 -0.21875 0.53125 -0.171875q0.296875 0.046875 0.5 0.265625q0.21875 0.203125 0.21875 0.546875q0 0.171875 -0.046875 0.3125q-0.03125 0.140625 -0.1875 0.28125q-1.09375 1.0 -2.4375 1.421875q-1.34375 0.421875 -2.78125 0.421875zm5.453125 -2.4375l-1.625 -0.34375l0 -4.28125l-3.328125 0q-0.359375 0 -0.59375 -0.203125q-0.234375 -0.21875 -0.234375 -0.546875q0 -0.3125 0.234375 -0.515625q0.234375 -0.203125 0.59375 -0.203125l4.125 0q0.359375 0 0.59375 0.21875q0.234375 0.21875 0.234375 0.59375l0 5.28125zm2.520691 2.21875q-0.5 0 -0.71875 -0.40625q-0.203125 -0.40625 -0.03125 -0.78125l6.265625 -14.890625q0.234375 -0.578125 0.8125 -0.578125q0.5625 0 0.796875 0.578125l6.28125 14.90625q0.203125 0.40625 -0.046875 0.796875q-0.25 0.375 -0.6875 0.375q-0.265625 0 -0.46875 -0.125q-0.203125 -0.125 -0.328125 -0.390625l-5.859375 -14.21875l0.65625 0l-5.90625 14.21875q-0.109375 0.265625 -0.3125 0.390625q-0.203125 0.125 -0.453125 0.125zm1.40625 -3.96875l0.640625 -1.421875l8.65625 0l0.640625 1.421875l-9.9375 0zm15.446838 3.96875q-0.40625 0 -0.671875 -0.21875q-0.265625 -0.234375 -0.265625 -0.609375l0 -15.0q0 -0.359375 0.234375 -0.59375q0.234375 -0.234375 0.59375 -0.234375l5.171875 0q1.28125 0 2.3125 0.546875q1.046875 0.546875 1.65625 1.484375q0.609375 0.9375 0.609375 2.171875q0 1.15625 -0.625 2.046875q-0.625 0.890625 -1.625 1.359375q1.4375 0.390625 2.3125 1.453125q0.875 1.046875 0.875 2.671875q0 1.453125 -0.671875 2.5625q-0.65625 1.09375 -1.828125 1.734375q-1.15625 0.625 -2.640625 0.625l-5.4375 0zm0.71875 -1.59375l4.71875 0q1.015625 0 1.796875 -0.40625q0.796875 -0.40625 1.234375 -1.15625q0.453125 -0.75 0.453125 -1.765625q0 -0.96875 -0.453125 -1.671875q-0.4375 -0.71875 -1.234375 -1.109375q-0.78125 -0.40625 -1.796875 -0.40625l-4.71875 0l0 6.515625zm0 -8.109375l4.34375 0q1.28125 0 2.109375 -0.71875q0.84375 -0.734375 0.84375 -2.03125q0 -1.28125 -0.84375 -1.9375q-0.828125 -0.671875 -2.109375 -0.671875l-4.34375 0l0 5.359375zm13.994995 9.703125q-0.359375 0 -0.59375 -0.234375q-0.234375 -0.234375 -0.234375 -0.59375l0 -15.0q0 -0.359375 0.234375 -0.59375q0.234375 -0.234375 0.59375 -0.234375q0.359375 0 0.59375 0.234375q0.234375 0.234375 0.234375 0.59375l0 15.0q0 0.359375 -0.234375 0.59375q-0.234375 0.234375 -0.59375 0.234375zm5.9292603 0q-0.359375 0 -0.59375 -0.234375q-0.234375 -0.234375 -0.234375 -0.59375l0 -15.0q0 -0.359375 0.234375 -0.59375q0.234375 -0.234375 0.59375 -0.234375q0.375 0 0.640625 0.296875l10.1875 13.390625l0 -12.859375q0 -0.359375 0.234375 -0.59375q0.234375 -0.234375 0.59375 -0.234375q0.34375 0 0.59375 0.234375q0.25 0.234375 0.25 0.59375l0 15.0q0 0.359375 -0.25 0.59375q-0.25 0.234375 -0.59375 0.234375q-0.171875 0 -0.34375 -0.0625q-0.15625 -0.0625 -0.265625 -0.21875l-10.21875 -13.390625l0 12.84375q0 0.359375 -0.25 0.59375q-0.234375 0.234375 -0.578125 0.234375zm17.595764 0q-0.359375 0 -0.59375 -0.234375q-0.234375 -0.234375 -0.234375 -0.59375l0 -15.0q0 -0.359375 0.234375 -0.59375q0.234375 -0.234375 0.59375 -0.234375l10.0 0q0.34375 0 0.578125 0.234375q0.25 0.21875 0.25 0.578125q0 0.3125 -0.25 0.546875q-0.234375 0.234375 -0.578125 0.234375l-9.171875 0l0 5.890625l6.671875 0q0.359375 0 0.59375 0.234375q0.234375 0.234375 0.234375 0.578125q0 0.34375 -0.234375 0.578125q-0.234375 0.234375 -0.59375 0.234375l-6.671875 0l0 5.953125l9.171875 0q0.34375 0 0.578125 0.234375q0.25 0.234375 0.25 0.546875q0 0.359375 -0.25 0.59375q-0.234375 0.21875 -0.578125 0.21875l-10.0 0zm18.759094 0q-0.328125 0 -0.578125 -0.234375q-0.25 -0.25 -0.25 -0.59375l0 -15.828125l1.671875 0l0 15.828125q0 0.34375 -0.234375 0.59375q-0.234375 0.234375 -0.609375 0.234375zm-5.875 -15.140625q-0.34375 0 -0.5625 -0.203125q-0.21875 -0.21875 -0.21875 -0.546875q0 -0.34375 0.21875 -0.546875q0.21875 -0.21875 0.5625 -0.21875l11.78125 0q0.34375 0 0.5625 0.21875q0.21875 0.203125 0.21875 0.546875q0 0.328125 -0.21875 0.546875q-0.21875 0.203125 -0.5625 0.203125l-11.78125 0zm15.844971 15.140625q-0.359375 0 -0.59375 -0.234375q-0.234375 -0.234375 -0.234375 -0.59375l0 -15.0q0 -0.359375 0.234375 -0.59375q0.234375 -0.234375 0.59375 -0.234375l10.0 0q0.34375 0 0.578125 0.234375q0.25 0.21875 0.25 0.578125q0 0.3125 -0.25 0.546875q-0.234375 0.234375 -0.578125 0.234375l-9.171875 0l0 5.890625l6.671875 0q0.359375 0 0.59375 0.234375q0.234375 0.234375 0.234375 0.578125q0 0.34375 -0.234375 0.578125q-0.234375 0.234375 -0.59375 0.234375l-6.671875 0l0 5.953125l9.171875 0q0.34375 0 0.578125 0.234375q0.25 0.234375 0.25 0.546875q0 0.359375 -0.25 0.59375q-0.234375 0.21875 -0.578125 0.21875l-10.0 0zm21.0083 0q-0.34375 0 -0.59375 -0.234375q-0.234375 -0.234375 -0.234375 -0.59375l0 -15.0q0 -0.34375 0.234375 -0.578125q0.25 -0.25 0.59375 -0.25q0.34375 0 0.578125 0.25q0.25 0.234375 0.25 0.578125l0 14.25l8.34375 0q0.34375 0 0.578125 0.234375q0.25 0.21875 0.25 0.546875q0 0.34375 -0.25 0.578125q-0.234375 0.21875 -0.578125 0.21875l-9.171875 0zm18.866821 0.21875q-1.84375 0 -3.40625 -0.640625q-1.5625 -0.640625 -2.703125 -1.796875q-1.140625 -1.15625 -1.765625 -2.703125q-0.625 -1.5625 -0.625 -3.421875q0 -1.828125 0.625 -3.375q0.625 -1.5625 1.765625 -2.71875q1.140625 -1.15625 2.703125 -1.796875q1.5625 -0.640625 3.40625 -0.640625q1.84375 0 3.390625 0.640625q1.5625 0.640625 2.703125 1.796875q1.15625 1.15625 1.78125 2.71875q0.640625 1.546875 0.640625 3.375q0 1.859375 -0.640625 3.421875q-0.625 1.546875 -1.78125 2.703125q-1.140625 1.15625 -2.703125 1.796875q-1.546875 0.640625 -3.390625 0.640625zm0 -1.578125q1.46875 0 2.734375 -0.515625q1.265625 -0.53125 2.1875 -1.484375q0.921875 -0.953125 1.4375 -2.21875q0.515625 -1.265625 0.515625 -2.765625q0 -1.46875 -0.515625 -2.734375q-0.515625 -1.265625 -1.4375 -2.21875q-0.921875 -0.953125 -2.1875 -1.46875q-1.265625 -0.53125 -2.734375 -0.53125q-1.484375 0 -2.75 0.53125q-1.25 0.515625 -2.1875 1.46875q-0.921875 0.953125 -1.4375 2.21875q-0.515625 1.265625 -0.515625 2.734375q0 1.5 0.515625 2.765625q0.515625 1.265625 1.4375 2.21875q0.9375 0.953125 2.1875 1.484375q1.265625 0.515625 2.75 0.515625zm19.013489 1.578125q-1.734375 0 -3.234375 -0.65625q-1.5 -0.671875 -2.640625 -1.84375q-1.140625 -1.1875 -1.78125 -2.734375q-0.640625 -1.546875 -0.640625 -3.328125q0 -1.75 0.625 -3.296875q0.625 -1.546875 1.765625 -2.71875q1.140625 -1.171875 2.640625 -1.84375q1.515625 -0.671875 3.265625 -0.671875q1.53125 0 2.78125 0.453125q1.265625 0.453125 2.4375 1.421875q0.1875 0.15625 0.21875 0.359375q0.03125 0.203125 -0.046875 0.390625q-0.078125 0.171875 -0.25 0.265625q-0.046875 0.15625 -0.21875 0.25q-0.171875 0.078125 -0.40625 0.0625q-0.21875 -0.015625 -0.421875 -0.1875q-0.84375 -0.734375 -1.828125 -1.078125q-0.96875 -0.359375 -2.265625 -0.359375q-1.390625 0 -2.59375 0.5625q-1.203125 0.546875 -2.125 1.515625q-0.921875 0.953125 -1.453125 2.21875q-0.515625 1.25 -0.515625 2.65625q0 1.453125 0.515625 2.71875q0.53125 1.25 1.453125 2.21875q0.921875 0.953125 2.125 1.5q1.203125 0.546875 2.59375 0.546875q1.171875 0 2.203125 -0.390625q1.046875 -0.390625 2.0 -1.109375q0.25 -0.21875 0.53125 -0.171875q0.296875 0.046875 0.5 0.265625q0.21875 0.203125 0.21875 0.546875q0 0.171875 -0.046875 0.3125q-0.03125 0.140625 -0.1875 0.28125q-1.09375 1.0 -2.4375 1.421875q-1.34375 0.421875 -2.78125 0.421875zm5.453125 -2.4375l-1.625 -0.34375l0 -4.28125l-3.328125 0q-0.359375 0 -0.59375 -0.203125q-0.234375 -0.21875 -0.234375 -0.546875q0 -0.3125 0.234375 -0.515625q0.234375 -0.203125 0.59375 -0.203125l4.125 0q0.359375 0 0.59375 0.21875q0.234375 0.21875 0.234375 0.59375l0 5.28125zm11.130066 2.4375q-1.84375 0 -3.40625 -0.640625q-1.5625 -0.640625 -2.703125 -1.796875q-1.140625 -1.15625 -1.765625 -2.703125q-0.625 -1.5625 -0.625 -3.421875q0 -1.828125 0.625 -3.375q0.625 -1.5625 1.765625 -2.71875q1.140625 -1.15625 2.703125 -1.796875q1.5625 -0.640625 3.40625 -0.640625q1.84375 0 3.390625 0.640625q1.5625 0.640625 2.703125 1.796875q1.15625 1.15625 1.78125 2.71875q0.640625 1.546875 0.640625 3.375q0 1.859375 -0.640625 3.421875q-0.625 1.546875 -1.78125 2.703125q-1.140625 1.15625 -2.703125 1.796875q-1.546875 0.640625 -3.390625 0.640625zm0 -1.578125q1.46875 0 2.734375 -0.515625q1.265625 -0.53125 2.1875 -1.484375q0.921875 -0.953125 1.4375 -2.21875q0.515625 -1.265625 0.515625 -2.765625q0 -1.46875 -0.515625 -2.734375q-0.515625 -1.265625 -1.4375 -2.21875q-0.921875 -0.953125 -2.1875 -1.46875q-1.265625 -0.53125 -2.734375 -0.53125q-1.484375 0 -2.75 0.53125q-1.25 0.515625 -2.1875 1.46875q-0.921875 0.953125 -1.4375 2.21875q-0.515625 1.265625 -0.515625 2.734375q0 1.5 0.515625 2.765625q0.515625 1.265625 1.4375 2.21875q0.9375 0.953125 2.1875 1.484375q1.265625 0.515625 2.75 0.515625zm12.7838745 1.359375q-0.359375 0 -0.59375 -0.234375q-0.234375 -0.234375 -0.234375 -0.59375l0 -15.0q0 -0.359375 0.234375 -0.59375q0.234375 -0.234375 0.59375 -0.234375l4.265625 0q1.578125 0 2.78125 0.703125q1.21875 0.6875 1.90625 1.90625q0.6875 1.203125 0.6875 2.8125q0 1.546875 -0.6875 2.765625q-0.6875 1.203125 -1.90625 1.890625q-1.203125 0.6875 -2.78125 0.6875l-3.4375 0l0 5.0625q0 0.359375 -0.234375 0.59375q-0.234375 0.234375 -0.59375 0.234375zm0.828125 -7.484375l3.4375 0q1.078125 0 1.9375 -0.484375q0.859375 -0.484375 1.328125 -1.328125q0.484375 -0.859375 0.484375 -1.9375q0 -1.140625 -0.484375 -1.984375q-0.46875 -0.859375 -1.328125 -1.34375q-0.859375 -0.5 -1.9375 -0.5l-3.4375 0l0 7.578125zm12.2247925 7.484375q-0.359375 0 -0.59375 -0.234375q-0.234375 -0.234375 -0.234375 -0.59375l0 -15.0q0 -0.359375 0.234375 -0.59375q0.234375 -0.234375 0.59375 -0.234375l10.0 0q0.34375 0 0.578125 0.234375q0.25 0.21875 0.25 0.578125q0 0.3125 -0.25 0.546875q-0.234375 0.234375 -0.578125 0.234375l-9.171875 0l0 5.890625l6.671875 0q0.359375 0 0.59375 0.234375q0.234375 0.234375 0.234375 0.578125q0 0.34375 -0.234375 0.578125q-0.234375 0.234375 -0.59375 0.234375l-6.671875 0l0 5.953125l9.171875 0q0.34375 0 0.578125 0.234375q0.25 0.234375 0.25 0.546875q0 0.359375 -0.25 0.59375q-0.234375 0.21875 -0.578125 0.21875l-10.0 0zm4.984375 -18.421875q-0.34375 0 -0.59375 -0.234375q-0.234375 -0.25 -0.234375 -0.59375q0 -0.34375 0.1875 -0.5625l2.40625 -2.40625q0.234375 -0.234375 0.578125 -0.234375q0.359375 0 0.59375 0.25q0.234375 0.234375 0.234375 0.609375q0 0.140625 -0.046875 0.296875q-0.046875 0.140625 -0.1875 0.25l-2.375 2.40625q-0.21875 0.21875 -0.5625 0.21875zm9.774719 18.421875q-0.359375 0 -0.59375 -0.234375q-0.234375 -0.234375 -0.234375 -0.59375l0 -15.0q0 -0.359375 0.234375 -0.59375q0.234375 -0.234375 0.59375 -0.234375l3.828125 0q1.84375 0 3.359375 0.609375q1.53125 0.609375 2.640625 1.734375q1.109375 1.109375 1.71875 2.625q0.609375 1.515625 0.609375 3.34375q0 1.84375 -0.609375 3.375q-0.609375 1.515625 -1.71875 2.640625q-1.109375 1.109375 -2.640625 1.71875q-1.515625 0.609375 -3.359375 0.609375l-3.828125 0zm0.828125 -1.5l3.0 0q1.96875 0 3.46875 -0.875q1.5 -0.890625 2.359375 -2.4375q0.859375 -1.546875 0.859375 -3.53125q0 -1.984375 -0.859375 -3.53125q-0.859375 -1.546875 -2.359375 -2.421875q-1.5 -0.875 -3.46875 -0.875l-3.0 0l0 13.671875zm15.5946045 1.5q-0.359375 0 -0.59375 -0.234375q-0.234375 -0.234375 -0.234375 -0.59375l0 -15.0q0 -0.359375 0.234375 -0.59375q0.234375 -0.234375 0.59375 -0.234375q0.359375 0 0.59375 0.234375q0.234375 0.234375 0.234375 0.59375l0 15.0q0 0.359375 -0.234375 0.59375q-0.234375 0.234375 -0.59375 0.234375zm12.58551 0.21875q-1.734375 0 -3.234375 -0.65625q-1.5 -0.671875 -2.640625 -1.84375q-1.140625 -1.1875 -1.78125 -2.734375q-0.640625 -1.546875 -0.640625 -3.328125q0 -1.75 0.625 -3.296875q0.625 -1.546875 1.765625 -2.71875q1.140625 -1.171875 2.640625 -1.84375q1.515625 -0.671875 3.265625 -0.671875q1.53125 0 2.78125 0.453125q1.265625 0.453125 2.4375 1.421875q0.1875 0.15625 0.21875 0.359375q0.03125 0.203125 -0.046875 0.390625q-0.078125 0.171875 -0.25 0.265625q-0.046875 0.15625 -0.21875 0.25q-0.171875 0.078125 -0.40625 0.0625q-0.21875 -0.015625 -0.421875 -0.1875q-0.84375 -0.734375 -1.828125 -1.078125q-0.96875 -0.359375 -2.265625 -0.359375q-1.390625 0 -2.59375 0.5625q-1.203125 0.546875 -2.125 1.515625q-0.921875 0.953125 -1.453125 2.21875q-0.515625 1.25 -0.515625 2.65625q0 1.453125 0.515625 2.71875q0.53125 1.25 1.453125 2.21875q0.921875 0.953125 2.125 1.5q1.203125 0.546875 2.59375 0.546875q1.171875 0 2.203125 -0.390625q1.046875 -0.390625 2.0 -1.109375q0.25 -0.21875 0.53125 -0.171875q0.296875 0.046875 0.5 0.265625q0.21875 0.203125 0.21875 0.546875q0 0.171875 -0.0625 0.3125q-0.046875 0.140625 -0.171875 0.28125q-1.09375 1.0 -2.4375 1.421875q-1.34375 0.421875 -2.78125 0.421875zm16.58319 0q-1.84375 0 -3.40625 -0.640625q-1.5625 -0.640625 -2.703125 -1.796875q-1.140625 -1.15625 -1.765625 -2.703125q-0.625 -1.5625 -0.625 -3.421875q0 -1.828125 0.625 -3.375q0.625 -1.5625 1.765625 -2.71875q1.140625 -1.15625 2.703125 -1.796875q1.5625 -0.640625 3.40625 -0.640625q1.84375 0 3.390625 0.640625q1.5625 0.640625 2.703125 1.796875q1.15625 1.15625 1.78125 2.71875q0.640625 1.546875 0.640625 3.375q0 1.859375 -0.640625 3.421875q-0.625 1.546875 -1.78125 2.703125q-1.140625 1.15625 -2.703125 1.796875q-1.546875 0.640625 -3.390625 0.640625zm0 -1.578125q1.46875 0 2.734375 -0.515625q1.265625 -0.53125 2.1875 -1.484375q0.921875 -0.953125 1.4375 -2.21875q0.515625 -1.265625 0.515625 -2.765625q0 -1.46875 -0.515625 -2.734375q-0.515625 -1.265625 -1.4375 -2.21875q-0.921875 -0.953125 -2.1875 -1.46875q-1.265625 -0.53125 -2.734375 -0.53125q-1.484375 0 -2.75 0.53125q-1.25 0.515625 -2.1875 1.46875q-0.921875 0.953125 -1.4375 2.21875q-0.515625 1.265625 -0.515625 2.734375q0 1.5 0.515625 2.765625q0.515625 1.265625 1.4375 2.21875q0.9375 0.953125 2.1875 1.484375q1.265625 0.515625 2.75 0.515625z" fill-rule="nonzero"/><path fill="#fff2cc" d="m231.26225 375.62204l0 0c0 -14.428986 11.88736 -26.125977 26.551163 -26.125977l0 0c7.0418396 0 13.795227 2.7525635 18.774536 7.65213c4.979309 4.8995667 7.7766724 11.5448 7.7766724 18.473846l0 0c0 14.428986 -11.88739 26.125977 -26.551208 26.125977l0 0c-14.663803 0 -26.551163 -11.696991 -26.551163 -26.125977z" fill-rule="evenodd"/></g></svg>